<?xml version="1.0" encoding="UTF-8" standalone="no"?><!DOCTYPE svg PUBLIC "-//W3C//DTD SVG 1.1//EN" "http://www.w3.org/Graphics/SVG/1.1/DTD/svg11.dtd"><svg width="100%" height="100%" viewBox="0 0 9898 4942" version="1.1" xmlns="http://www.w3.org/2000/svg" xmlns:xlink="http://www.w3.org/1999/xlink" xml:space="preserve" xmlns:serif="http://www.serif.com/" style="fill-rule:evenodd;clip-rule:evenodd;stroke-linecap:round;stroke-linejoin:round;stroke-miterlimit:1.5;"><g><rect x="0" y="0" width="9897.22" height="4941.55" style="fill:#f0f0f0;"/><rect x="0" y="0" width="9897.22" height="4941.55" style="fill:#ffff62;"/><clipPath id="_clip1"><rect x="0" y="0" width="9897.22" height="4941.55"/></clipPath><g clip-path="url(#_clip1)"><path d="M2271.41,5325.04c0,0 177.453,-1615.11 1512.62,-2165.76c1335.16,-550.649 2647.8,-227.512 3093.39,-1604.45c445.589,-1376.94 1600.52,-2204.94 2030.32,-1900.8" style="fill:none;stroke:#000;stroke-width:8.33px;"/><g><path d="M2713.93,5325.04c0,0 177.452,-1615.11 1512.62,-2165.76c1335.16,-550.649 2647.8,-227.512 3093.39,-1604.45c445.59,-1376.94 1600.52,-2204.94 2030.32,-1900.8" style="fill:none;stroke:#fff;stroke-width:8.33px;"/><path d="M-1855.43,4217.32c0,0 177.452,-1615.11 1512.62,-2165.76c1335.16,-550.649 2647.8,-227.512 3093.39,-1604.45c445.59,-1376.94 770.524,-1208.22 1200.33,-904.079" style="fill:none;stroke:#fff;stroke-width:8.33px;"/><path d="M7348.81,6914.22c0,0 177.453,-1615.11 1512.62,-2165.76c1335.16,-550.649 2647.8,-227.511 3093.39,-1604.45c445.59,-1376.94 770.524,-1208.22 1200.33,-904.078" style="fill:none;stroke:#fff;stroke-width:8.33px;"/><path d="M1289.88,5211.89c0,0 -681.893,-1317.07 -34.528,-2112.81c647.366,-795.746 2011.73,-189.904 3281.62,-1348.13c1269.89,-1158.22 583.636,-1763.75 2665.64,-2100.36" style="fill:none;stroke:#fff;stroke-width:8.33px;"/><path d="M6828.84,5465.07c0,0 -792.241,-1503.87 492.311,-2014.1c1261.72,-501.163 2106.75,42.76 2163.51,-2077.06c34.4,-1284.7 2167.68,-2255.09 2709.86,-1903.08" style="fill:none;stroke:#fff;stroke-width:8.33px;"/></g><path d="M-2297.95,4217.32c0,0 177.453,-1615.11 1512.62,-2165.76c1335.16,-550.649 2647.8,-227.512 3093.39,-1604.45c445.589,-1376.94 770.524,-1208.22 1200.33,-904.079" style="fill:none;stroke:#000;stroke-width:8.33px;"/><path d="M6906.29,6914.22c0,0 177.453,-1615.11 1512.62,-2165.76c1335.16,-550.649 2647.8,-227.511 3093.39,-1604.45c445.589,-1376.94 770.524,-1208.22 1200.33,-904.078" style="fill:none;stroke:#000;stroke-width:8.33px;"/><path d="M847.357,5211.89c0,0 -681.893,-1317.07 -34.528,-2112.81c647.366,-795.746 2011.73,-189.904 3281.62,-1348.13c1269.89,-1158.22 583.636,-1763.75 2665.64,-2100.36" style="fill:none;stroke:#000;stroke-width:8.33px;"/><path d="M6386.32,5465.07c0,0 -792.241,-1503.87 492.311,-2014.1c1261.72,-501.163 2106.75,42.76 2163.51,-2077.06c34.4,-1284.7 2167.68,-2255.09 2709.86,-1903.08" style="fill:none;stroke:#000;stroke-width:8.33px;"/></g></g></svg>